<?xml version="1.0" standalone="no"?>
<!DOCTYPE svg PUBLIC "-//W3C//DTD SVG 20010904//EN"
 "http://www.w3.org/TR/2001/REC-SVG-20010904/DTD/svg10.dtd">
<svg version="1.0" xmlns="http://www.w3.org/2000/svg"
 width="1612.000000pt" height="1612.000000pt" viewBox="0 0 1612.000000 1612.000000"
 preserveAspectRatio="xMidYMid meet">
<metadata>
Created by potrace 1.11, written by Peter Selinger 2001-2013
</metadata>
<g transform="translate(0.000000,1612.000000) scale(0.100000,-0.100000)"
fill="#000000" stroke="none">
<path d="M7070 15259 c-110 -26 -226 -62 -249 -77 -65 -43 -102 -56 -119 -44
-32 23 -45 25 -76 14 -18 -7 -44 -12 -57 -12 -28 0 -49 -17 -49 -39 0 -30 -42
-101 -60 -101 -13 0 -19 -11 -24 -40 -3 -23 -13 -43 -21 -46 -8 -4 -15 -13
-15 -21 0 -30 -43 -103 -61 -103 -24 0 -69 -56 -69 -86 0 -14 -7 -27 -15 -30
-8 -4 -15 -12 -15 -20 0 -9 -18 -16 -51 -20 -28 -4 -53 -13 -56 -20 -2 -7 -22
-25 -44 -40 -22 -15 -47 -41 -56 -58 -8 -17 -23 -40 -33 -51 -9 -11 -25 -47
-35 -80 -9 -33 -35 -98 -57 -145 -23 -47 -44 -94 -49 -105 -35 -89 -51 -148
-53 -195 -2 -30 -6 -63 -11 -73 -4 -9 -5 -32 -2 -50 2 -17 1 -39 -4 -48 -4 -9
-2 -61 7 -120 8 -57 17 -131 20 -164 2 -33 8 -107 13 -165 6 -75 5 -109 -3
-119 -10 -12 -10 -51 -3 -185 2 -26 -2 -31 -32 -37 -44 -9 -56 -23 -75 -88
-30 -102 -15 -232 41 -356 20 -44 44 -105 54 -135 29 -92 46 -134 88 -219 22
-44 37 -81 34 -81 -7 0 47 -42 82 -65 23 -14 49 -19 110 -19 44 -1 88 3 97 8
13 6 19 3 24 -10 3 -11 10 -28 15 -39 5 -11 21 -54 35 -95 15 -41 42 -105 60
-143 35 -68 67 -173 59 -187 -3 -5 -2 -10 3 -12 4 -1 18 -41 31 -88 12 -47 27
-96 32 -110 5 -14 11 -38 13 -55 2 -16 6 -37 9 -45 9 -21 35 -177 43 -252 7
-75 -5 -109 -67 -189 -51 -66 -152 -162 -195 -185 -30 -17 -34 -16 -92 5 -70
26 -78 24 -139 -42 -36 -39 -44 -43 -77 -39 -20 2 -42 0 -49 -6 -6 -5 -34 -17
-62 -26 -27 -9 -70 -28 -95 -42 -25 -14 -94 -44 -155 -66 -60 -22 -128 -52
-150 -66 -32 -21 -50 -26 -92 -24 -29 1 -55 -3 -58 -8 -3 -6 -13 -10 -22 -10
-9 0 -43 -13 -77 -29 -34 -16 -86 -32 -116 -36 -30 -4 -82 -20 -115 -35 -33
-15 -88 -33 -122 -41 -35 -7 -63 -17 -63 -21 0 -4 -10 -8 -22 -8 -25 0 -156
-48 -228 -83 -24 -12 -64 -39 -88 -59 -24 -21 -49 -38 -55 -38 -7 0 -39 -27
-72 -61 -33 -33 -72 -67 -87 -75 -15 -8 -28 -18 -28 -22 0 -4 -15 -23 -33 -42
-95 -99 -160 -210 -201 -340 -10 -30 -26 -73 -35 -95 -23 -50 -48 -194 -61
-350 -6 -66 -18 -151 -26 -190 -8 -38 -23 -117 -34 -175 -10 -58 -31 -161 -44
-230 -14 -69 -26 -147 -26 -173 0 -26 -9 -74 -20 -106 -10 -32 -21 -80 -24
-107 -2 -27 -11 -71 -20 -99 -36 -113 -56 -185 -77 -280 -12 -55 -26 -113 -30
-129 -5 -16 -9 -52 -9 -80 0 -28 -18 -116 -39 -196 -21 -80 -53 -198 -70 -262
-17 -65 -32 -137 -33 -160 0 -24 -5 -54 -10 -67 -5 -13 -6 -31 -3 -41 8 -27
236 -130 288 -130 12 0 54 -7 92 -15 39 -9 124 -27 189 -41 72 -15 130 -33
145 -45 31 -25 66 -128 90 -269 11 -68 30 -133 53 -185 28 -61 37 -99 43 -163
3 -47 19 -123 36 -174 16 -50 29 -98 29 -105 0 -8 9 -31 20 -53 11 -21 19 -56
19 -77 -1 -43 15 -135 31 -173 5 -14 14 -56 19 -95 13 -107 59 -295 89 -370
11 -27 28 -79 38 -115 10 -36 21 -69 24 -75 13 -19 40 -108 40 -132 0 -13 28
-76 62 -141 34 -64 68 -130 77 -147 17 -34 75 -120 101 -150 10 -11 36 -53 58
-92 39 -69 81 -128 165 -230 43 -52 44 -75 7 -148 -11 -22 -20 -47 -20 -57 0
-9 -4 -19 -9 -22 -5 -3 -16 -29 -26 -58 -9 -29 -41 -107 -71 -174 -30 -67 -54
-125 -54 -129 0 -4 -16 -48 -36 -98 -48 -118 -66 -251 -53 -385 13 -144 18
-161 59 -232 53 -92 90 -167 90 -183 0 -8 -19 -32 -42 -54 -40 -37 -130 -145
-139 -168 -2 -5 -15 -28 -29 -50 -14 -22 -25 -42 -26 -45 -1 -7 -11 -35 -40
-108 -13 -34 -24 -80 -24 -102 0 -22 -9 -63 -20 -91 -10 -29 -24 -95 -31 -148
-11 -96 -11 -96 20 -176 28 -73 40 -90 122 -170 87 -88 90 -91 86 -130 -3 -22
-18 -74 -35 -115 -16 -41 -42 -113 -57 -160 -15 -47 -37 -110 -50 -140 -12
-30 -28 -80 -34 -110 -7 -30 -16 -73 -20 -95 -10 -44 -26 -134 -43 -237 -6
-36 -8 -73 -5 -82 6 -15 278 -16 3087 -16 1694 0 3080 2 3080 5 0 4 -7 19 -15
36 -9 16 -20 64 -25 107 -14 108 -37 186 -122 411 -22 58 -44 132 -50 165 -11
72 -3 154 19 178 14 16 14 35 4 170 -10 134 -17 194 -35 323 -3 17 -9 71 -16
120 -23 195 -49 318 -80 381 -16 34 -30 72 -30 83 0 18 29 51 97 108 16 13 24
37 32 90 18 118 16 127 -34 179 -34 36 -47 59 -55 98 -5 28 -17 87 -26 131 -9
44 -20 114 -25 155 -4 41 -13 120 -19 175 -6 55 -15 152 -20 215 -14 166 -26
258 -43 320 -9 33 -18 123 -22 223 -6 167 -6 169 19 211 27 46 89 101 146 131
19 10 80 29 135 41 55 12 128 29 162 38 167 42 213 47 493 56 157 5 301 13
320 18 57 15 157 31 290 47 125 15 173 24 220 42 14 6 54 13 90 17 89 9 125
22 193 68 64 43 109 90 145 150 23 37 23 45 17 176 -10 236 -14 274 -38 377
-13 55 -35 124 -50 153 -15 30 -27 61 -27 70 0 9 -9 46 -20 81 -11 36 -22 94
-25 130 -8 83 -21 132 -45 174 -10 17 -24 54 -30 80 -6 27 -29 76 -51 108 -22
33 -47 83 -55 112 -8 29 -23 84 -34 122 -49 180 -62 220 -85 266 -14 26 -25
54 -25 61 0 7 -14 40 -30 73 -17 33 -30 75 -30 93 0 46 -32 102 -59 102 -12 0
-62 69 -97 135 -14 28 -38 66 -53 85 -14 19 -33 47 -41 61 -8 15 -30 48 -47
75 -38 55 -42 84 -13 91 10 3 22 14 25 24 4 10 11 19 16 19 5 0 17 16 26 35
16 34 16 36 -3 63 -12 15 -24 41 -28 57 -7 30 -39 108 -81 200 -25 54 -55 140
-55 155 0 6 -13 38 -29 72 -59 127 -83 183 -118 277 -20 53 -40 98 -43 101 -4
3 -13 23 -22 45 -9 22 -39 89 -68 149 -29 60 -53 114 -54 120 -1 6 -9 22 -18
36 -9 14 -19 36 -23 50 -5 14 -18 41 -30 60 -11 19 -31 60 -44 90 -13 30 -40
87 -60 125 -21 39 -41 82 -44 96 -4 14 -22 46 -42 72 -19 25 -35 49 -35 53 0
25 -160 212 -228 266 -25 20 -49 45 -53 55 -4 10 -36 34 -73 53 -36 19 -66 38
-66 41 0 11 -50 27 -125 40 -76 14 -124 34 -195 83 -34 23 -61 32 -110 37 -36
4 -87 17 -115 29 -47 20 -333 158 -420 202 -122 63 -157 77 -230 96 -130 34
-262 62 -290 62 -30 0 -170 68 -235 114 -25 18 -65 43 -90 57 -25 13 -63 36
-84 52 -21 15 -43 27 -49 27 -17 0 -143 134 -156 168 -8 17 -16 32 -20 32 -3
0 -12 15 -19 33 -8 17 -17 41 -22 52 -54 128 -53 121 -58 591 -4 441 -4 441
18 485 13 24 36 64 53 88 58 85 116 240 152 404 l16 77 48 0 c40 0 54 6 89 36
62 53 72 82 82 245 5 79 14 176 22 214 11 65 16 189 9 260 -2 17 -1 62 3 101
5 68 4 72 -22 96 -15 14 -40 28 -55 32 -22 5 -27 11 -22 27 4 11 -2 37 -14 62
-18 38 -21 68 -26 297 -7 366 -18 488 -49 594 -14 49 -37 102 -51 118 -30 35
-55 91 -55 122 0 11 -7 34 -15 50 -8 15 -15 37 -15 47 0 46 -36 107 -100 169
-36 36 -84 92 -106 124 -21 32 -61 78 -89 102 -167 143 -247 203 -291 219 -27
10 -56 24 -64 30 -8 7 -31 20 -50 30 -32 16 -56 22 -168 40 -19 3 -52 14 -75
25 -100 49 -412 84 -517 59z m3181 -8399 c10 -6 26 -25 35 -43 9 -18 20 -34
23 -37 9 -8 71 -110 71 -118 0 -4 9 -24 20 -45 18 -34 19 -43 8 -75 -7 -20
-23 -54 -35 -74 -13 -21 -32 -59 -42 -85 -39 -97 -87 -209 -99 -230 -7 -12
-12 -35 -12 -50 0 -33 -16 -53 -41 -53 -25 0 -29 20 -29 165 0 95 -4 143 -15
168 -19 46 -19 161 0 247 8 36 14 84 15 107 0 51 12 85 40 113 23 23 33 24 61
10z"/>
<path d="M13018 7963 c7 -3 16 -2 19 1 4 3 -2 6 -13 5 -11 0 -14 -3 -6 -6z"/>
</g>
</svg>
